# xmcd CD database file
#
# Track frame offsets:
#	150
#	19540
#	29559
#	43682
#	58667
#	77981
#	91789
#	108473
#	124712
#	142860
#	161457
#	172865
#	188469
#
# Disc length: 2725 seconds
#
# Revision: 0
# Processed by: cddbd v1.5PL3 Copyright (c) Steve Scherf et al.
# Submitted via: CDex 1.51
#
DISCID=980aa30d
DTITLE=Kelly Pardekooper - House of Mud
DYEAR=2002
DGENRE=Country
TTITLE0=House of Mud
TTITLE1=Hayseed Girl
TTITLE2=Drown in Alcohol
TTITLE3=Compromise
TTITLE4=Fly on the Wall
TTITLE5=Mrs. Brown
TTITLE6=Whatever it was
TTITLE7=Tell me quickly
TTITLE8=Can`t go there
TTITLE9=Hell`s Kitchen
TTITLE10=Tiny Angel
TTITLE11=Pray for rain
TTITLE12=Highway home
EXTD=YEAR: 2002
EXTT0=
EXTT1=
EXTT2=
EXTT3=
EXTT4=
EXTT5=
EXTT6=
EXTT7=
EXTT8=
EXTT9=
EXTT10=
EXTT11=
EXTT12=
PLAYORDER=
